<svg xmlns="http://www.w3.org/2000/svg" xmlns:xlink="http://www.w3.org/1999/xlink" width="590.076" height="130.722" viewBox="0 0 590.076 130.722"><defs><linearGradient id="a" x1="0.5" y1="1.243" x2="0.5" y2="-1.417" gradientUnits="objectBoundingBox"><stop offset="0" stop-color="#7f3f98"/><stop offset="0.25" stop-color="#6d55a7"/><stop offset="0.76" stop-color="#3f8dcd"/><stop offset="1" stop-color="#27aae1"/></linearGradient><linearGradient id="b" x1="0.5" y1="1.748" x2="0.5" y2="-0.044" xlink:href="#a"/><linearGradient id="c" x1="4.438" y1="0.5" x2="-3.478" y2="0.5" xlink:href="#a"/><linearGradient id="d" x1="10.735" y1="0.5" x2="-0.984" y2="0.5" xlink:href="#a"/><linearGradient id="e" x1="0.021" y1="0.5" x2="-12.612" y2="0.5" xlink:href="#a"/><linearGradient id="f" x1="2.081" y1="0.5" x2="-10.049" y2="0.5" xlink:href="#a"/><linearGradient id="g" x1="10.156" y1="0.5" x2="-2.095" y2="0.5" xlink:href="#a"/><linearGradient id="h" x1="8.029" y1="0.5" x2="-4.294" y2="0.5" xlink:href="#a"/><linearGradient id="i" x1="5.33" y1="0.5" x2="-7.126" y2="0.5" xlink:href="#a"/><linearGradient id="j" x1="9.278" y1="0.5" x2="-3.295" y2="0.5" xlink:href="#a"/><linearGradient id="k" x1="1.102" y1="0.499" x2="-11.99" y2="0.499" xlink:href="#a"/><linearGradient id="l" x1="3.309" y1="0.5" x2="-10.195" y2="0.5" xlink:href="#a"/><linearGradient id="m" x1="5.851" y1="0.5" x2="-11.289" y2="0.5" xlink:href="#a"/><linearGradient id="n" x1="11.427" y1="0.5" x2="-29.971" y2="0.5" xlink:href="#a"/><linearGradient id="o" x1="11.008" y1="0.5" x2="-28.877" y2="0.5" xlink:href="#a"/><linearGradient id="p" x1="2.43" y1="0.501" x2="-41.604" y2="0.501" xlink:href="#a"/><linearGradient id="q" x1="2.429" y1="0.502" x2="-41.574" y2="0.502" xlink:href="#a"/></defs><g transform="translate(0 0.016)"><g transform="translate(0 -0.016)"><path d="M102.786,132.255c-1.09,14.833-7.072,27.108-18.716,36.649-8.521,7.019-18.917,10.018-28.953,13.984a4.632,4.632,0,0,1-3.489-.359c-6.812-2.882-13.642-5.7-20.384-8.7a38.016,38.016,0,0,1-12.67-9.965c-7.325-8.25-6.895-21.569.772-28.322,3.489-3.076,7.832-4.125,12.163-5.2a96.994,96.994,0,0,1,16.8-2.121c16.63-.978,33.254-.66,49.885-.678C102.48,127.594,102.827,127.953,102.786,132.255Z" transform="translate(-5.474 -52.354)" fill="url(#a)"/><path d="M48.512.129c12.505,0,25.028.289,37.527-.136C91.884-.189,96.9,6.54,96.876,10.925q-.088,8.963.147,17.927c0,2.121-.961,2.646-2.758,2.646-5,0-10.018.153-15.015,0-3.112-.083-4.243,1.108-4.125,4.219.165,7.072.083,14.143.1,21.215,0,5.3,0,5.3-5.133,5.3a199.184,199.184,0,0,0-40.8,4.054c-6.482,1.373-12.894,3.1-18.545,6.889-3.2,2.127-6.264,4.331-8.056,7.891-.33.678-.754,1.532-1.638,1.379S0,81.04,0,80.2A16.277,16.277,0,0,1,7.113,68.942c7.49-5.516,16.176-7.885,25.11-9.429a178.735,178.735,0,0,1,33.1-3.212c2.593,0,3.365-1.073,3.394-3.536.124-10.655.4-21.3.589-31.946.071-3.889-.413-4.361-4.261-4.361-15.387.088-30.644,1.615-45.2,7.072-6.7,2.5-13.36,5.427-17.485,11.857-.342.548-.813,1.179-1.556.813S0,34.7,0,33.866c0-7.661.071-15.457.071-23.177a10.189,10.189,0,0,1,2-5.752A9.818,9.818,0,0,1,11.032-.007c12.505.159,25.028,0,37.533,0Z" transform="translate(0 0.016)" fill="url(#b)"/><path d="M501.93,94.006V77.694c0-1.638.236-3.282,2.316-3.159,2.328.141,5.392-2.3,6.812,1.379.76,1.974,1.514,1.809,2.758.678,4.714-4.331,10.425-3.695,16.064-3.159,2.068.194,3.43,1.85,4.632,3.394s2.192,1.461,3.459.189c4.125-4.125,9.323-4.314,14.621-3.695a8.975,8.975,0,0,1,7.413,8.4c.212,9.794.112,19.583.153,29.371a2.31,2.31,0,0,1-1.956,2.628,2.416,2.416,0,0,1-.589,0h-.648c-7.449.4-7.449.4-7.449-6.948,0-5.987.071-11.957,0-17.927,0-2.233.153-4.879-2.357-5.987s-4.549.442-6.565,1.839a8.84,8.84,0,0,0-4.125,8.521c.318,5.64,0,11.3.094,16.96,0,2.687-1.073,3.612-3.695,3.654-6.895.094-6.895.177-6.895-6.618V88.3c0-1.968,0-4.054-2.027-5.18-2.216-1.273-4.231-.253-6.105.937-3.117,1.945-5.062,4.355-4.868,8.48.277,6.052-1.078,12.134,0,18.215a2.216,2.216,0,0,1-.206,1.585c-2.292,2.84-5.516,1.061-8.25,1.379-1.974.218-2.54-1.379-2.54-3.035V94.035Z" transform="translate(-206.141 -29.992)" fill="url(#c)"/><path d="M223.886,88.2c.524-11.515.625-23.03.524-34.557,0-1.721,0-3.489,2.387-3.447,7.82.136,15.664-.784,23.443.772,8.038,1.615,11.7,5.351,12.67,13.554a33.79,33.79,0,0,1-.837,13.265c-1.379,4.909-4.555,7.408-9.429,8.25a73.662,73.662,0,0,1-12.688.589c-4.773,0-4.879.124-4.9,5v9.458c0,2.139-.754,3.117-3.029,3.229-7.52.359-8.015,0-8.15-7.661C223.845,93.87,223.886,91.042,223.886,88.2Zm11.7-19.966h-.236c0,2.175.082,4.343,0,6.482,0,1.379.466,2.11,1.8,2.122,3.365,0,6.73,0,10.095-.106a4.125,4.125,0,0,0,3.807-3.141c2.015-7.6,1.656-15.045-8.881-14.921-6.482.071-6.524,0-6.565,6.288Z" transform="translate(-91.941 -20.545)" fill="url(#d)"/><path d="M975.87,84.606V98.62c0,2.44-.678,3.8-3.536,3.86-7.419.153-7.419.248-7.419-7.1V76.073c0-4.426-2.357-5.834-6.382-4.125-6.895,2.911-8.686,6.176-8.162,13.666.33,4.644.135,9.335.165,14.008a2.357,2.357,0,0,1-1.957,2.664,2.233,2.233,0,0,1-.589,0h-.648c-9.281,0-7.891.689-7.914-7.372-.071-15.169,0-30.214,0-45.312,0-4.072.206-4.249,4.231-4.29,6.895-.071,6.895-.071,6.895,6.895a91.35,91.35,0,0,1-.383,12.7c-.153,1.078-.778,2.664.519,3.253s1.768-.949,2.569-1.638c4.272-3.777,9.028-5.928,14.9-4.9,4.632.831,7.284,3.736,7.378,8.51s0,9.57,0,14.338Z" transform="translate(-385.794 -18.594)" fill="url(#e)"/><path d="M844.434,93.468v16.288c0,2.758-.967,4.125-3.819,3.789-2.316-.3-5.422,1.3-6.264-2.758-.289-1.379-1.379-.424-2,0-5.044,4.125-10.908,3.766-16.754,2.87a8.521,8.521,0,0,1-6.73-6.011,41.982,41.982,0,0,1-.383-27.167c1.379-4.52,4.962-6.783,9.429-7.5,7.885-1.267,15.817,0,23.731,0,2.357,0,2.758,1.585,2.758,3.536C844.422,82.147,844.434,87.816,844.434,93.468Zm-26.077.206h-.247a68.619,68.619,0,0,0,.554,7.779c.524,2.994,2.328,4,5.262,3.2a15.787,15.787,0,0,0,6.8-4.29c3.489-3.389,2.44-7.661,2.5-11.692.094-7.873,0-7.873-7.614-7.614-4.508.153-6.824,2.251-7.225,6.748C818.2,89.761,818.357,91.8,818.357,93.674Z" transform="translate(-331.192 -29.731)" fill="url(#f)"/><path d="M319.626,109.23a17.025,17.025,0,0,1-11.032,5.139c-9.653,1.008-14.644-2.169-15.953-11.786a49.867,49.867,0,0,1,.589-19.748c1.721-6.412,5.516-9.388,12.31-9.5s13.46,0,20.19,0c2.758,0,3.848,1.143,3.83,3.919-.083,10.607,0,21.274,0,31.923,0,2.257.33,4.644-3.241,4.767C320.7,114.1,320.374,114.027,319.626,109.23Zm-16.2-15.593h0v5.209c0,2.275-.206,4.856,2.275,6.011s4.8.1,7.072-1.179c5.834-3.282,5.893-8.675,5.763-14.4-.206-8.769-.354-9.046-9.069-7.926-3.86.5-5.793,2.522-5.987,6.435C303.284,89.73,303.426,91.692,303.426,93.637Z" transform="translate(-119.893 -30.088)" fill="url(#g)"/><path d="M468.214,93.945c0,5.445-.083,10.879,0,16.312,0,2.646-.884,3.9-3.589,3.654-2.481-.236-5.516,1.061-6.011-3.377-.194-1.674-1.668.094-2.357.589-5.516,4.125-11.709,4.125-17.927,2.357a8.079,8.079,0,0,1-5.516-5.981c-2.292-8.539-2.882-17.143-.359-25.729A11.415,11.415,0,0,1,443.3,73.413c7.184-.183,14.355,0,21.539,0,2.522,0,3.436,1.179,3.394,3.612C468.155,82.636,468.214,88.287,468.214,93.945Zm-26.047,0h-.124v4.532c0,2.428,0,5.044,2.534,6.288,2.758,1.379,5.215.094,7.584-1.479,5.145-3.406,5.763-8.368,5.516-13.978-.4-8.728,1.379-8.138-8.368-8.026-4.343,0-6.647,2.151-7.119,6.482a57.593,57.593,0,0,0,0,6.217Z" transform="translate(-176.933 -30.108)" fill="url(#h)"/><path d="M629.957,113.684a79.956,79.956,0,0,1-9.653-.359c-7.861-1.255-12.411-5.828-13.79-13.554A43.92,43.92,0,0,1,606.6,83.9c1.037-5.516,4.3-9.1,9.765-10.095,6.423-1.179,12.965-1.585,19.3.678,5.516,1.956,7.944,7.225,7,14.52-.536,4.125-4.567,7.266-10.018,7.732-4.2.359-8.409.884-12.629,1.285-2,.177-2.357,1.179-1.7,2.893,1.179,2.947,3.695,3.948,6.512,4.043,3.9.136,7.832.083,11.721-.136,3.471-.194,6.895,4.261,5.693,7.567-.483,1.285-1.668,1.267-2.758,1.285C636.628,113.7,633.817,113.684,629.957,113.684Zm-5.092-32.612a12.962,12.962,0,0,0-2.481.206,7.266,7.266,0,0,0-4.768,8.563c1.031,3.064,3.666,1.037,5.622,1.09a18.7,18.7,0,0,0,2.947-.248c3.948-.536,5.392-2,5.215-5.227C631.153,81.926,630.022,81.06,624.866,81.071Z" transform="translate(-248.813 -29.91)" fill="url(#i)"/><path d="M363.3,93.72V77.078c0-2.357.955-3.406,3.312-3.282,1.3.071,2.6,0,3.9,0,.772,0,1.851.165,1.9.966.4,5.374,2.675,1.845,4.125.866,5.145-3.312,10.8-3.059,16.394-2.151,3.671.589,6.718,4.5,6.8,8.633.218,9.553.094,19.123.094,28.693a2.493,2.493,0,0,1-2.2,2.758,2.182,2.182,0,0,1-.554,0h-.66c-7.614.371-7.614.371-7.614-7.2V87.456c0-4.714-2.44-6.188-6.812-4.343a29.565,29.565,0,0,0-6.453,4.373,3.807,3.807,0,0,0-1.379,3.536c.678,6.382-1.02,12.782.071,19.176a2.64,2.64,0,0,1-1.768,3.294,2.61,2.61,0,0,1-1.179.088c-9.511,0-7.956.589-8.05-7.266V93.579Z" transform="translate(-149.16 -29.924)" fill="url(#j)"/><path d="M897.058,81.608h-8.15c-1.243,0-2.528.306-2.829,1.727a2.51,2.51,0,0,0,1.7,2.852c3.076,1.379,6.205,2.581,9.323,3.86a64.827,64.827,0,0,1,5.993,2.54c5.752,3.017,7.932,7.844,6.541,14.143a8.368,8.368,0,0,1-7.13,6.759,106.328,106.328,0,0,1-24.061.183c-2.911-.289-2.569-2.416-2.634-4.343s.413-3.683,2.947-3.683c4.785,0,9.57.112,14.355-.083,2.151-.094,5.3.259,5.652-2.563.295-2.457-2.676-2.982-4.6-3.836-4.455-2-9.24-3.253-13.43-5.858a12.316,12.316,0,0,1-5.463-13.819c.955-3.459,4.361-5.981,8.622-6.394a132.5,132.5,0,0,1,21.409-.153c3.341.218,3.011,2.41,3.064,4.6s-.306,4.125-3.271,4.125h-8.115Z" transform="translate(-359.283 -29.798)" fill="url(#k)"/><path d="M772.372,114.241a34.922,34.922,0,0,1-12.617-1.131c-7.956-2.675-9.942-9.429-10.714-16.742a42.014,42.014,0,0,1,.743-12.022c1.267-6.718,5.893-10.607,12.8-11.486a89.171,89.171,0,0,1,16.919,0,2.522,2.522,0,0,1,2.77,2.245,2.559,2.559,0,0,1,0,.636c.106,5.516-.707,6.412-6.264,6.412-2.6,0-5.227-.071-7.832,0-3.872.136-5.981,1.9-6.895,5.722a25.658,25.658,0,0,0-.135,10.054c.925,5.3,2.387,6.588,7.8,6.895,3.253.177,6.524,0,9.794.094,2.864.082,4.408,2.563,4.3,6.742-.071,2.675-2.233,2.192-3.836,2.428a30.293,30.293,0,0,1-3.583.124C774.552,114.252,773.462,114.241,772.372,114.241Z" transform="translate(-307.57 -29.748)" fill="url(#l)"/><path d="M673.558,96.269V82.591a6.164,6.164,0,0,1,4.927-6.671,76.8,76.8,0,0,1,19.193-3.2c1.379,0,2.522.3,2.634,1.768a44.26,44.26,0,0,1,0,6.482c-.141,1.685-1.615,1.768-2.947,1.933-3.005.383-6,.866-9,1.3s-4.4,2.18-4.125,5.374c.318,4.98.359,9.971.513,14.962v1.939c0,7.072-2.357,8.8-9.24,7.072-1.709-.43-1.833-1.615-1.833-2.947V96.269Z" transform="translate(-276.614 -29.856)" fill="url(#m)"/><path d="M735.807,93.278v16.96c0,2.357-.9,3.235-3.271,3.318-7.749.253-7.844.236-7.844-7.537V75.7a2.905,2.905,0,0,1,2.487-3.259,3.036,3.036,0,0,1,.654,0h3.919c2.947-.259,4.125.937,4.043,3.942C735.712,81.952,735.807,87.662,735.807,93.278Z" transform="translate(-297.618 -29.729)" fill="url(#n)"/><path d="M730.733,55.185c-4.991,0-6.034-.925-6.023-5.392,0-4.125,1.179-5.145,5.669-5.133,4.243,0,5.893,1.379,5.893,4.744C736.237,54.425,735.518,55.167,730.733,55.185Z" transform="translate(-297.635 -18.332)" fill="url(#o)"/><path d="M902.852,56.582c2.287.112,5-.678,5.1,3.182.083,2.758-.731,4.426-3.836,4.125a14.654,14.654,0,0,0-2.275,0c-2.758.236-4.3-.648-4.355-3.748s1.768-3.777,4.384-3.583a7.8,7.8,0,0,0,.978.024Z" transform="translate(-368.595 -23.206)" fill="url(#p)"/><path d="M902.935,147.335c1.915.236,4.8-.884,5.021,3.017.147,2.858-.843,4.373-3.866,4.125a19.211,19.211,0,0,0-2.6,0c-2.758.236-3.984-.961-4-3.76s1.379-3.7,3.86-3.489a4.637,4.637,0,0,0,1.585.106Z" transform="translate(-368.595 -60.445)" fill="url(#q)"/></g></g></svg>